<?xml version="1.0" encoding="UTF-8" standalone="no"?>
<svg
   xmlns:dc="http://purl.org/dc/elements/1.1/"
   xmlns:cc="http://creativecommons.org/ns#"
   xmlns:rdf="http://www.w3.org/1999/02/22-rdf-syntax-ns#"
   xmlns:svg="http://www.w3.org/2000/svg"
   xmlns="http://www.w3.org/2000/svg"
   xmlns:sodipodi="http://sodipodi.sourceforge.net/DTD/sodipodi-0.dtd"
   xmlns:inkscape="http://www.inkscape.org/namespaces/inkscape"
   aria-hidden="true"
   data-prefix="far"
   data-icon="hand-pointer"
   class="svg-inline--fa fa-hand-pointer fa-w-14"
   role="img"
   viewBox="0 0 1007.8771 1037.017"
   version="1.1"
   id="svg4"
   sodipodi:docname="pick-one-favicon.svg"
   width="1007.8771"
   height="1037.017"
   inkscape:version="0.92.3 (2405546, 2018-03-11)">
  <metadata
     id="metadata10">
    <rdf:RDF>
      <cc:Work
         rdf:about="">
        <dc:format>image/svg+xml</dc:format>
        <dc:type
           rdf:resource="http://purl.org/dc/dcmitype/StillImage" />
        <dc:title></dc:title>
      </cc:Work>
    </rdf:RDF>
  </metadata>
  <defs
     id="defs8" />
  <sodipodi:namedview
     pagecolor="#ffffff"
     bordercolor="#666666"
     borderopacity="1"
     objecttolerance="10"
     gridtolerance="10"
     guidetolerance="10"
     inkscape:pageopacity="0"
     inkscape:pageshadow="2"
     inkscape:window-width="1920"
     inkscape:window-height="1001"
     id="namedview6"
     showgrid="false"
     inkscape:zoom="0.4609375"
     inkscape:cx="708.25502"
     inkscape:cy="503.65065"
     inkscape:window-x="-9"
     inkscape:window-y="-9"
     inkscape:window-maximized="1"
     inkscape:current-layer="svg4" />
  <g
     id="g863"
     transform="matrix(2.0254237,0,0,2.0254237,4e-4,0)">
    <path
       id="path827"
       d="M 358.182,179.361 C 338.689,154.593 305.503,147.416 278.31,160.263 263.183,144.576 242.128,137.776 221.715,140.634 V 67 c 0,-36.944 -29.736,-67 -66.286,-67 -36.55,0 -66.286,30.056 -66.286,67 v 161.129 c -19.909,-7.41 -43.272,-5.094 -62.083,8.872 -29.355,21.795 -35.793,63.333 -14.55,93.152 L 122.209,484.154 C 134.632,501.59 154.741,512 176,512 h 178.286 c 30.802,0 57.574,-21.5 64.557,-51.797 L 446.272,341.204 A 67.873,67.873 0 0 0 448,326 v -84 c 0,-46.844 -46.625,-79.273 -89.818,-62.639 z"
       inkscape:connector-curvature="0" />
    <path
       style="fill:#fbfbfb;fill-opacity:1"
       id="path825"
       d="m 80.985,279.697 27.126,38.079 c 8.995,12.626 29.031,6.287 29.031,-9.283 V 67 c 0,-25.12 36.571,-25.16 36.571,0 v 175 c 0,8.836 7.163,16 16,16 h 6.857 c 8.837,0 16,-7.164 16,-16 v -35 c 0,-25.12 36.571,-25.16 36.571,0 v 35 c 0,8.836 7.163,16 16,16 H 272 c 8.837,0 16,-7.164 16,-16 v -21 c 0,-25.12 36.571,-25.16 36.571,0 v 21 c 0,8.836 7.163,16 16,16 h 6.857 c 8.837,0 16,-7.164 16,-16 0,-25.121 36.571,-25.16 36.571,0 v 84 c 0,1.488 -0.169,2.977 -0.502,4.423 l -27.43,119.001 C 370.089,458.006 362.777,464 354.285,464 H 176 c -5.769,0 -11.263,-2.878 -14.697,-7.697 l -109.712,-154 C 37.185,282.08 66.585,259.485 80.985,279.697 Z"
       inkscape:connector-curvature="0" />
  </g>
</svg>
